<svg width="20" height="20" viewBox="0 0 20 20" fill="none" xmlns="http://www.w3.org/2000/svg">
<path fill-rule="evenodd" clip-rule="evenodd" d="M11.2193 0.607955C10.607 -0.199478 9.39319 -0.199478 8.78095 0.607955L7.40692 2.42007C7.18858 2.70802 6.83187 2.85577 6.47387 2.80655L4.22093 2.49678C3.21707 2.35876 2.35876 3.21707 2.49678 4.22092L2.80655 6.47387C2.85577 6.83187 2.70802 7.18858 2.42007 7.40692L0.607955 8.78095C-0.199478 9.39319 -0.199478 10.607 0.607955 11.2193L2.42007 12.5933C2.70802 12.8116 2.85577 13.1683 2.80655 13.5263L2.49678 15.7793C2.35876 16.7831 3.21707 17.6415 4.22092 17.5034L6.47387 17.1937C6.83187 17.1444 7.18858 17.2922 7.40691 17.5801L8.78095 19.3923C9.39319 20.1997 10.607 20.1997 11.2193 19.3923L12.5933 17.5801C12.8116 17.2922 13.1683 17.1444 13.5263 17.1937L15.7793 17.5034C16.7831 17.6415 17.6415 16.7831 17.5034 15.7793L17.1937 13.5263C17.1444 13.1683 17.2922 12.8116 17.5801 12.5933L19.3923 11.2193C20.1997 10.607 20.1997 9.39319 19.3923 8.78095L17.5801 7.40692C17.2922 7.18858 17.1444 6.83187 17.1937 6.47387L17.5034 4.22092C17.6415 3.21707 16.7831 2.35876 15.7793 2.49678L13.5263 2.80655C13.1683 2.85577 12.8116 2.70802 12.5933 2.42007L11.2193 0.607955ZM12.7071 7.2929C12.3166 6.90237 11.6834 6.90237 11.2929 7.2929L7.29289 11.2929C6.90237 11.6834 6.90237 12.3166 7.29289 12.7071C7.68342 13.0976 8.31658 13.0976 8.70711 12.7071L12.7071 8.70711C13.0976 8.31658 13.0976 7.68342 12.7071 7.2929ZM8 9C7.44772 9 7 8.55229 7 8C7 7.44772 7.44772 7 8 7C8.55229 7 9 7.44772 9 8C9 8.55229 8.55229 9 8 9ZM12 13C12.5523 13 13 12.5523 13 12C13 11.4477 12.5523 11 12 11C11.4477 11 11 11.4477 11 12C11 12.5523 11.4477 13 12 13Z" fill="#323232"/>
</svg>
